HIERARCHY
ROOT Hips
{
  OFFSET 118.66 95.8035 284.807
  CHANNELS 6 Xposition Yposition Zposition Zrotation Xrotation Yrotation
  JOINT RightUpLeg
  {
    OFFSET -8.9458 -8.66707 0.101652
    CHANNELS 3 Zrotation Xrotation Yrotation
    JOINT RightLeg
    {
      OFFSET 0 -44.4227 1.3727
      CHANNELS 3 Zrotation Xrotation Yrotation
      JOINT RightFoot
      {
        OFFSET 0.253549 -42.0924 -1.46059
        CHANNELS 3 Zrotation Xrotation Yrotation
        JOINT RightToes
        {
          OFFSET 0.04 -4.41509 8.4991
          CHANNELS 3 Zrotation Xrotation Yrotation
          End Site
          {
            OFFSET -0.08 -0.137448 9.77979
          }
        }
      }
    }
  }
  JOINT Spine
  {
    OFFSET 0 11.8905 0
    CHANNELS 3 Zrotation Xrotation Yrotation
    JOINT Spine1
    {
      OFFSET 0 25.6574 0.127663
      CHANNELS 3 Zrotation Xrotation Yrotation
      JOINT HEad
      {
        OFFSET 0 8.73416 0.011341
        CHANNELS 3 Zrotation Xrotation Yrotation
        End Site
        {
          OFFSET -0.29 12.7742 2.51395
        }
      }
      JOINT LeftShoulder1
      {
        OFFSET 8.99 -0.362252 -0.22
        CHANNELS 3 Zrotation Xrotation Yrotation
        JOINT LeftArm
        {
          OFFSET 10.2827 -0.00338 0.322123
          CHANNELS 3 Zrotation Xrotation Yrotation
          JOINT LeftForeArm
          {
            OFFSET 32.7669 0.099144 -1.42434
            CHANNELS 3 Zrotation Xrotation Yrotation
            JOINT LeftHand
            {
              OFFSET 27.5643 0.085362 1.02216
              CHANNELS 3 Zrotation Xrotation Yrotation
              End Site
              {
                OFFSET 16.7443 -0.6 1.50291
              }
            }
          }
        }
      }
      JOINT RightShoulder
      {
        OFFSET -8.99 -0.362252 -0.22
        CHANNELS 3 Zrotation Xrotation Yrotation
        JOINT RightArm
        {
          OFFSET -10.2827 -0.00338 0.322123
          CHANNELS 3 Zrotation Xrotation Yrotation
          JOINT RightForeArm
          {
            OFFSET -32.8971 0.099144 -1.42434
            CHANNELS 3 Zrotation Xrotation Yrotation
            JOINT RightHand
            {
              OFFSET -27.4921 0.085362 1.02216
              CHANNELS 3 Zrotation Xrotation Yrotation
              End Site
              {
                OFFSET -16.6312 -0.6 1.50291
              }
            }
          }
        }
      }
    }
  }
  JOINT LeftUpLeg
  {
    OFFSET 8.9458 -8.66707 0.101652
    CHANNELS 3 Zrotation Xrotation Yrotation
    JOINT LeftLeg
    {
      OFFSET 0 -44.4227 1.3727
      CHANNELS 3 Zrotation Xrotation Yrotation
      JOINT LeftFoot
      {
        OFFSET -0.253549 -42.0924 -1.46059
        CHANNELS 3 Zrotation Xrotation Yrotation
        JOINT LeftToes
        {
          OFFSET -0.04 -4.41509 8.4991
          CHANNELS 3 Zrotation Xrotation Yrotation
          End Site
          {
            OFFSET 0.08 -0.047448 9.77979
          }
        }
      }
    }
  }
}
MOTION
Frames:	10
Frame Time:	0.0166667
107.768 98.3916 43.0455 0.388253 4.94807 -177.608 5.36422 9.20449 4.37813 4.15086 21.2625 -15.6644 3.31528 -15 0.0699874 1.13628 -7.586 -2.01098 6.96713 0.08742 1.61194 0.215664 13.1549 1.87067 -10.6185 -20.9066 -8.01037 1.19271e-015 -1.59028e-015 -2.38542e-015 -139.293 -69.0088 -67.6465 17.8041 6.73824 -2.77521 0.368473 9.90896 -0.00117927 16.2031 -0.236778 -4.53472 105.764 -27.0592 52.5988 -3.58717 6.45172 20.3418 -0.369625 9.91382 0.00119886 -0.167225 -20.2681 -7.51848 -1.65124 5.43203 14.97 -0.814534 -3.48376 0.0401732 -7.61571 -2.15784 0.542208 
107.39 98.1678 40.7345 0.760211 5.12285 -178.199 5.23478 10.4357 3.99669 4.51671 22.053 -15.1394 3.2485 -14.8938 0.0653422 1.18763 -7.70447 -2.06384 7.1446 0.0794381 1.70304 0.407963 13.3087 1.94549 -10.4289 -21.5055 -7.92228 -3.97569e-016 -1.59028e-015 -0 -143.386 -71.1832 -71.9175 19.1499 6.17562 -3.33316 0.368473 9.90896 -0.00117927 16.1966 -0.276627 -4.70872 105.964 -25.9647 53.1176 -3.7713 6.41544 20.2662 -0.369625 9.91382 0.00119886 0.467993 -20.3986 -5.54844 -1.95847 7.25312 14.2939 -0.855378 -3.41184 0.041584 -8.75082 -3.09127 0.717847 
107.058 97.8948 38.2757 1.05223 5.29182 -178.567 5.04851 11.6348 3.70113 5.05338 23.0143 -15.171 3.28392 -14.5857 0.0632367 0.964261 -7.79449 -2.02054 7.21981 0.0924639 1.58093 0.355639 13.1434 1.89815 -9.75907 -21.8759 -7.56358 4.96962e-016 -1.59028e-015 -7.95139e-016 -147.175 -73.5512 -76.2927 20.0342 5.7684 -3.70061 0.368473 9.90896 -0.00117927 16.6321 -0.238416 -4.52677 105.919 -25.5049 53.4095 -3.83666 6.43122 20.1558 -0.369625 9.91382 0.00119886 0.774477 -20.4227 -3.81758 -1.82083 9.92581 14.3551 -1.08167 -2.02305 0.060193 -9.07825 -2.81922 0.667595 
106.752 97.6687 35.7728 1.20181 5.49887 -178.715 4.78129 12.7403 3.29882 5.59203 24.1961 -15.544 3.29357 -13.9726 0.0518161 0.677705 -7.66243 -1.88686 7.14774 0.138526 1.32331 0.0355064 12.9025 1.80308 -8.82035 -22.1344 -7.17622 -4.96962e-016 1.59028e-015 7.95139e-016 -150.471 -75.8334 -80.3381 20.4746 5.56414 -3.88335 0.368473 9.90896 -0.00117927 17.3649 -0.180726 -4.2557 105.847 -25.4535 53.4969 -3.88286 6.45146 20.042 -0.369625 9.91382 0.00119886 0.901134 -20.4883 -2.27745 -1.86894 13.1811 14.0719 -1.20201 -0.509517 0.0780015 -8.95671 -2.31133 0.573619 
106.476 97.6088 33.3456 1.16138 5.7747 -178.654 4.47843 13.6989 2.72674 5.96027 25.5534 -16.1605 3.10739 -12.8778 0.0164936 0.543078 -7.20889 -1.70919 6.80198 0.254782 1.00662 -0.549505 12.7957 1.72485 -7.81451 -22.3708 -6.97463 2.20695e-032 1.59028e-015 -7.95139e-016 -151.49 -77.9545 -81.9512 20.224 5.73318 -3.77749 0.368473 9.90896 -0.00117927 18.2523 -0.163388 -4.15357 105.96 -25.591 53.3885 -3.99911 6.43653 19.9404 -0.369625 9.91382 0.00119886 1.07586 -20.9022 -0.888314 -2.49896 16.8452 11.9211 -0.97663 0.119002 0.079538 -8.21882 -2.31853 0.581473 
106.196 97.6142 30.8817 0.842917 6.11358 -178.285 3.95846 14.454 1.81956 6.28735 27.3703 -17.0573 2.99024 -11.4462 -0.0245145 0.31161 -6.19494 -1.31237 6.39382 0.354874 0.538344 -1.50256 12.6756 1.61024 -6.74391 -22.4384 -6.8352 5.96354e-016 -7.95139e-016 -0 -150.749 -79.8458 -81.947 19.6325 6.05259 -3.53033 0.368473 9.90896 -0.00117927 19.2729 -0.114615 -3.94788 106.199 -26.2173 53.0335 -4.17315 6.37908 19.9168 -0.369625 9.91382 0.00119886 0.864795 -21.0391 -0.210565 -3.05256 20.266 9.88169 -0.438865 0.237545 0.0700022 -7.13522 -2.20441 0.559716 
105.881 97.612 28.2399 0.0764753 6.55547 -177.427 2.97241 15.0534 0.353975 6.81172 29.8397 -18.4351 3.26875 -9.86802 -0.0482263 -0.636451 -4.01773 -0.275099 6.14103 0.344353 -0.212053 -3.03041 12.4053 1.4003 -5.65179 -22.1719 -6.68697 -4.96962e-016 7.95139e-016 1.59028e-015 -148.984 -81.3929 -81.4119 18.9348 6.35517 -3.24117 0.368473 9.90896 -0.00117927 20.4015 0.0504541 -3.32918 106.632 -27.7736 52.3798 -4.47568 6.21998 20.132 -0.369625 9.91382 0.00119886 -0.281327 -20.2067 -1.29282 -3.64001 22.5297 10.2501 0.630095 -0.144655 0.0413249 -6.0338 -1.31074 0.369317 
105.531 97.6383 25.6266 -0.962031 6.98878 -176.329 1.7523 15.108 -1.5549 7.21469 33.1473 -19.8731 3.58273 -7.83123 -0.0848943 -1.1251 -1.66528 0.603862 5.88788 0.284398 -1.05403 -4.82406 12.1618 1.17788 -4.61651 -21.7149 -6.58673 -3.47873e-016 7.95139e-016 -0 -146.064 -82.4058 -79.8272 18.2295 6.64395 -2.94983 0.368473 9.90896 -0.00117927 21.4982 0.23338 -2.6665 107.02 -29.6907 51.5086 -4.74412 6.07584 20.3169 -0.369625 9.91382 0.00119886 -1.79463 -18.9045 -2.63364 -4.21328 24.0833 10.9708 1.71004 -0.939948 0.0178878 -4.56087 -0.45381 0.179339 
105.134 97.7095 23.2102 -2.19417 7.3332 -175.075 0.30058 14.2203 -4.08562 7.05138 37.8445 -21.0416 3.69708 -4.69576 -0.176862 0.669516 0.155535 0.436974 5.52807 0.192875 -1.88138 -6.76049 12.111 1.0066 -3.61949 -21.0683 -6.57383 4.96962e-017 0 2.38542e-015 -142.806 -82.629 -77.8057 17.7188 6.86261 -2.7385 0.368473 9.90896 -0.00117927 22.521 0.363292 -2.24378 107.011 -31.5147 50.3608 -4.7324 6.09206 20.2006 -0.369625 9.91382 0.00119886 -3.42489 -17.3687 -2.77819 -4.31377 25.1078 10.1909 2.22709 -2.18518 0.0286845 -2.07055 -0.390846 0.137094 
104.7 97.812 20.9633 -3.44616 7.53975 -173.977 -1.29378 12.4703 -6.49332 6.68809 43.2005 -21.9889 3.58372 -1.63631 -0.26335 2.74196 1.19358 -0.0491304 5.13599 0.105664 -2.57171 -8.47656 12.1511 0.882393 -2.98194 -20.4966 -6.62503 4.96962e-017 7.95139e-016 -0 -139.878 -82.1348 -75.8602 17.3363 7.02215 -2.58026 0.368473 9.90896 -0.00117927 23.1741 0.441034 -2.00672 107.045 -33.2141 49.117 -4.77105 6.12055 19.9485 -0.369625 9.91382 0.00119886 -5.09456 -15.7579 -2.75048 -4.23721 25.633 9.29103 2.56661 -3.49764 0.0518851 0.186394 -0.641198 0.167041 
